<?xml version="1.0" encoding="UTF-8" standalone="no"?>
<!DOCTYPE svg PUBLIC "-//W3C//DTD SVG 1.1//EN" "http://www.w3.org/Graphics/SVG/1.1/DTD/svg11.dtd">
<svg width="100%" height="100%" viewBox="0 0 158 252" version="1.1" xmlns="http://www.w3.org/2000/svg" xmlns:xlink="http://www.w3.org/1999/xlink" xml:space="preserve" xmlns:serif="http://www.serif.com/" style="fill-rule:evenodd;clip-rule:evenodd;stroke-linecap:round;stroke-linejoin:round;stroke-miterlimit:1.5;">
    <g transform="matrix(6,0,0,6,4,-1)">
        <path d="M12.667,41C12.667,41 25.089,19.658 25,13C24.832,0.524 12.725,1 12.725,1C12.725,1 0.42,1.198 0,13C-0.238,19.696 12.667,41 12.667,41Z" style="fill:rgb(255,202,8);stroke:rgb(225,166,0);stroke-width:1px;"/>
    </g>
    <g transform="matrix(0.167517,0,0,0.167517,17.621,20.0106)">
        <g>
            <path d="M412.026,249.433C385.229,240.586 356.415,231.77 327.268,227.212L326,227.014L326,22.836L455.259,128.5L433.785,190.826L420.857,182.207L427.367,144.148L364,96.504L364.002,206.708C379.369,212.228 397.61,221.211 418.24,233.421L419.322,234.061L413.396,249.884L412.026,249.433Z" style="fill:white;fill-rule:nonzero;"/>
        </g>
        <g>
            <path d="M547.259,319.694C521.27,299.955 465.573,263.621 465.014,263.256L463.781,262.452L513.142,183.578L628.461,279.906L626.569,280.972C626.19,281.186 588.215,302.542 548.769,319.872L547.961,320.226L547.259,319.694ZM497.058,253.353C503.445,258.238 534.832,282.248 550.357,294.044C570.516,284.754 587.64,276.37 593.416,273.522L523.298,216.181L497.058,253.353Z" style="fill:white;fill-rule:nonzero;"/>
        </g>
        <g>
            <path d="M461.084,446.792L462.377,446.154C485.862,434.569 497.981,426.563 514.245,411.885L514.941,411.257L594.163,443.255L518.076,574.796L461.084,446.792ZM528.602,522.895L565.864,459.793L527.412,442.09C520.233,450.504 510.789,458.427 500.597,464.586L528.602,522.895Z" style="fill:white;fill-rule:nonzero;"/>
        </g>
        <g>
            <path d="M337,481.367L338.379,481.255C369.439,478.735 392.728,474.123 416.252,465.836L417.768,465.301L427.752,501.461L426.76,502.044C407.302,513.468 384.021,515.755 378,516.167L378,811.768L451.902,693.477L426.289,578.468L445.213,568.278L481.364,704.737L337,940.573L337,481.367Z" style="fill:white;fill-rule:nonzero;"/>
        </g>
        <g>
            <path d="M150.994,388.294C124.515,382.132 93.283,360.279 92.97,360.06L89.276,357.458L93.793,357.334C94.032,357.328 117.433,356.681 123.245,356.039C133.738,350.991 141.743,346.355 151,340.994C159.949,335.811 170.092,329.937 184.812,322.334C190.333,319.482 195.704,316.572 200.898,313.757C231.557,297.143 260.515,281.449 313.851,281.449C317.489,281.449 321.259,281.523 325.058,281.668C389.548,284.13 412.361,295.804 443.936,311.961C446.713,313.382 449.56,314.839 452.51,316.327C475.565,327.96 499.206,341.322 520.908,354.984C522.2,354.945 524.505,354.925 527.777,354.925C534.082,354.925 541.935,354.999 542.013,354.999L545.11,355.028L543.168,357.44C542.737,357.975 532.357,370.667 510.611,380.369L510.064,380.613L509.499,380.413C500.433,377.204 492.52,373.511 481.569,368.399C469.675,362.848 454.875,355.94 431.931,346.554C389.565,329.222 353.251,326.522 323.315,326.166C321.228,326.141 319.015,326.122 316.684,326.122C292.539,326.122 256.214,328.269 219.679,346.836C201.637,356.005 188.797,364.745 177.468,372.456C168.381,378.642 160.532,383.984 151.994,388.178L151.514,388.414L150.994,388.294Z" style="fill:white;fill-rule:nonzero;"/>
        </g>
        <g>
            <path d="M330.745,432.5C257.888,432.24 207.916,399.579 207.42,399.249L205.608,398.045L207.378,396.78C207.621,396.606 231.922,379.269 252.25,367.534L253.276,366.942L254.09,367.802C254.394,368.123 284.9,399.884 324.237,399.884C325.136,399.884 326.036,399.868 326.945,399.834C368.845,398.291 398.777,366.955 399.074,366.639L399.803,365.864L456.088,390.821L454.078,392.358C453.553,392.759 400.78,432.501 331.402,432.501L330.745,432.5Z" style="fill:white;fill-rule:nonzero;"/>
        </g>
    </g>
</svg>
