<?xml version="1.0" encoding="UTF-8" standalone="no"?>
<!DOCTYPE svg PUBLIC "-//W3C//DTD SVG 1.1//EN" "http://www.w3.org/Graphics/SVG/1.1/DTD/svg11.dtd">
<svg width="100%" height="100%" viewBox="0 0 800 600" version="1.1" xmlns="http://www.w3.org/2000/svg" xmlns:xlink="http://www.w3.org/1999/xlink" xml:space="preserve" xmlns:serif="http://www.serif.com/" style="fill-rule:evenodd;clip-rule:evenodd;stroke-miterlimit:10;">
    <g>
        <g id="Shape-3" serif:id="Shape 3" transform="matrix(1,0,0,1,-110,-67)">
            <path d="M693.958,342.221L835.444,376.094L698.886,412.048L693.958,342.221Z" style="fill:rgb(242,231,148);"/>
        </g>
        <g id="Ellipse-2-copy" serif:id="Ellipse 2 copy" transform="matrix(1,0,0,1,-110,-67)">
            <path d="M554.884,74.903C600.248,91.286 616.43,164.041 591.029,237.406C565.628,310.771 497.181,350.802 462.898,340.58C422.146,328.43 401.352,251.442 426.754,178.077C452.155,104.712 509.521,58.52 554.884,74.903Z" style="fill:rgb(182,182,182);"/>
        </g>
        <g id="Ellipse-1" serif:id="Ellipse 1" transform="matrix(1,0,0,1,-110,-67)">
            <path d="M479.375,188.5C608.126,188.5 712.5,273.286 712.5,377.875C712.5,482.464 608.126,567.25 479.375,567.25C350.624,567.25 246.25,482.464 246.25,377.875C246.25,273.286 350.624,188.5 479.375,188.5Z" style="fill:rgb(242,231,148);"/>
        </g>
        <g id="Ellipse-2" serif:id="Ellipse 2" transform="matrix(1,0,0,1,-110,-67)">
            <path d="M716.932,123.894C756.272,152.549 750.931,226.895 705.002,289.952C659.072,353.008 580.963,371.826 550.607,352.241C514.522,328.958 516.608,249.239 562.537,186.183C608.467,123.126 677.592,95.239 716.932,123.894Z" style="fill:rgb(214,214,214);"/>
        </g>
        <g id="Ellipse-5" serif:id="Ellipse 5" transform="matrix(1,0,0,1,-110,-67)">
            <path d="M397.5,364.75C403.713,364.75 408.75,374.264 408.75,386C408.75,397.736 403.713,407.25 397.5,407.25C391.287,407.25 386.25,397.736 386.25,386C386.25,374.264 391.287,364.75 397.5,364.75Z" style="fill:rgb(43,43,33);"/>
        </g>
        <g id="Ellipse-5-copy" serif:id="Ellipse 5 copy" transform="matrix(1,0,0,1,-110,-67)">
            <path d="M288.75,356C294.963,356 300,365.514 300,377.25C300,388.986 294.963,398.5 288.75,398.5C282.537,398.5 277.5,388.986 277.5,377.25C277.5,365.514 282.537,356 288.75,356Z" style="fill:rgb(43,43,33);"/>
        </g>
        <g id="Shape-5" serif:id="Shape 5" transform="matrix(1,0,0,1,-110,-67)">
            <path d="M312.505,424.759C315.597,438.472 332.043,479.75 341.912,479.75C351.793,475.936 355.726,449.332 361.247,426.943C328.26,428.493 326.511,426.63 312.505,424.759Z" style="fill:rgb(43,43,33);fill-opacity:0.6;"/>
        </g>
    </g>
</svg>
