<?xml version="1.0" encoding="UTF-8" standalone="no"?>
<!DOCTYPE svg PUBLIC "-//W3C//DTD SVG 1.1//EN" "http://www.w3.org/Graphics/SVG/1.1/DTD/svg11.dtd">
<svg width="100%" height="100%" viewBox="0 0 800 600" version="1.1" xmlns="http://www.w3.org/2000/svg" xmlns:xlink="http://www.w3.org/1999/xlink" xml:space="preserve" xmlns:serif="http://www.serif.com/" style="fill-rule:evenodd;clip-rule:evenodd;stroke-miterlimit:10;">
    <g id="Shape-3" serif:id="Shape 3" transform="matrix(1,0,0,1,-110,-67)">
        <path d="M693.958,342.221L835.444,376.094L698.886,412.048L693.958,342.221Z" style="fill:rgb(51,203,153);"/>
    </g>
    <g id="Ellipse-2-copy" serif:id="Ellipse 2 copy" transform="matrix(1,0,0,1,-110,-67)">
        <path d="M554.884,74.903C600.248,91.286 616.43,164.041 591.029,237.406C565.628,310.771 497.181,350.802 462.898,340.58C422.146,328.43 401.352,251.442 426.754,178.077C452.155,104.712 509.521,58.52 554.884,74.903Z" style="fill:rgb(182,182,182);"/>
    </g>
    <g id="Ellipse-1" serif:id="Ellipse 1" transform="matrix(1,0,0,1,-110,-67)">
        <path d="M479.375,188.5C608.126,188.5 712.5,273.286 712.5,377.875C712.5,482.464 608.126,567.25 479.375,567.25C350.624,567.25 246.25,482.464 246.25,377.875C246.25,273.286 350.624,188.5 479.375,188.5Z" style="fill:rgb(51,203,153);"/>
    </g>
    <g id="Ellipse-2" serif:id="Ellipse 2" transform="matrix(1,0,0,1,-110,-67)">
        <path d="M716.932,123.894C756.272,152.549 750.931,226.895 705.002,289.952C659.072,353.008 580.963,371.826 550.607,352.241C514.522,328.958 516.608,249.239 562.537,186.183C608.467,123.126 677.592,95.239 716.932,123.894Z" style="fill:rgb(214,214,214);"/>
    </g>
    <g id="Ellipse-5" serif:id="Ellipse 5" transform="matrix(1,0,0,1,-110,-67)">
        <path d="M397.5,364.75C403.713,364.75 408.75,374.264 408.75,386C408.75,397.736 403.713,407.25 397.5,407.25C391.287,407.25 386.25,397.736 386.25,386C386.25,374.264 391.287,364.75 397.5,364.75Z" style="fill:rgb(39,119,91);"/>
    </g>
    <g id="Ellipse-5-copy" serif:id="Ellipse 5 copy" transform="matrix(1,0,0,1,-110,-67)">
        <path d="M288.75,356C294.963,356 300,365.514 300,377.25C300,388.986 294.963,398.5 288.75,398.5C282.537,398.5 277.5,388.986 277.5,377.25C277.5,365.514 282.537,356 288.75,356Z" style="fill:rgb(39,119,91);"/>
    </g>
    <g id="Shape-5" serif:id="Shape 5" transform="matrix(1,0,0,1,-110,-67)">
        <path d="M312.505,424.759C315.597,438.472 332.043,479.75 341.912,479.75C351.793,475.936 355.726,449.332 361.247,426.943C328.26,428.493 326.511,426.63 312.505,424.759Z" style="fill:rgb(31,61,51);fill-opacity:0.6;"/>
    </g>
    <g id="glasses" transform="matrix(1,0,0,1,-110,-67)">
        <path id="Shape-6" serif:id="Shape 6" d="M194.107,270.297L273.061,422.956L339.971,350.644L194.107,270.297" style="fill:rgb(31,109,83);stroke:rgb(32,62,52);stroke-width:10.42px;"/>
        <path id="Shape-7" serif:id="Shape 7" d="M520.629,305.114L402.867,437.686L339.971,351.983L517.952,303.775" style="fill:rgb(32,109,83);stroke:rgb(32,62,52);stroke-width:10.42px;"/>
        <g id="Ellipse-3" serif:id="Ellipse 3">
            <path d="M198.121,260.923C204.034,260.923 208.827,265.72 208.827,271.636C208.827,277.553 204.034,282.349 198.121,282.349C192.209,282.349 187.416,277.553 187.416,271.636C187.416,265.72 192.209,260.923 198.121,260.923Z" style="fill:rgb(7,189,129);"/>
            <path d="M198.121,250.507C186.458,250.507 176.999,259.965 176.999,271.636C176.999,283.308 186.458,292.766 198.121,292.766C209.785,292.766 219.244,283.308 219.244,271.636C219.244,259.965 209.785,250.507 198.121,250.507ZM198.121,260.923C204.034,260.923 208.827,265.72 208.827,271.636C208.827,277.553 204.034,282.349 198.121,282.349C192.209,282.349 187.416,277.553 187.416,271.636C187.416,265.72 192.209,260.923 198.121,260.923Z" style="fill:rgb(32,62,52);"/>
        </g>
        <g id="Ellipse-3-copy" serif:id="Ellipse 3 copy">
            <path d="M273.061,413.582C278.973,413.582 283.766,418.378 283.766,424.295C283.766,430.211 278.973,435.008 273.061,435.008C267.148,435.008 262.355,430.211 262.355,424.295C262.355,418.378 267.148,413.582 273.061,413.582Z" style="fill:rgb(8,189,128);"/>
            <path d="M273.061,403.165C261.397,403.165 251.938,412.623 251.938,424.295C251.938,435.966 261.397,445.424 273.061,445.424C284.724,445.424 294.183,435.966 294.183,424.295C294.183,412.623 284.724,403.165 273.061,403.165ZM273.061,413.582C278.973,413.582 283.766,418.378 283.766,424.295C283.766,430.211 278.973,435.008 273.061,435.008C267.148,435.008 262.355,430.211 262.355,424.295C262.355,418.378 267.148,413.582 273.061,413.582Z" style="fill:rgb(32,62,52);"/>
        </g>
        <g id="Ellipse-3-copy-2" serif:id="Ellipse 3 copy 2">
            <path d="M338.633,343.948C344.545,343.948 349.338,348.744 349.338,354.661C349.338,360.577 344.545,365.374 338.633,365.374C332.72,365.374 327.927,360.577 327.927,354.661C327.927,348.744 332.72,343.948 338.633,343.948Z" style="fill:rgb(7,189,129);"/>
            <path d="M338.633,333.531C326.969,333.531 317.511,342.989 317.511,354.661C317.511,366.332 326.969,375.79 338.633,375.79C350.296,375.79 359.755,366.332 359.755,354.661C359.755,342.989 350.296,333.531 338.633,333.531ZM338.633,343.948C344.545,343.948 349.338,348.744 349.338,354.661C349.338,360.577 344.545,365.374 338.633,365.374C332.72,365.374 327.927,360.577 327.927,354.661C327.927,348.744 332.72,343.948 338.633,343.948Z" style="fill:rgb(32,62,52);"/>
        </g>
        <g id="Ellipse-3-copy-3" serif:id="Ellipse 3 copy 3">
            <path d="M402.867,429.651C408.779,429.651 413.572,434.447 413.572,440.364C413.572,446.28 408.779,451.077 402.867,451.077C396.954,451.077 392.161,446.28 392.161,440.364C392.161,434.447 396.954,429.651 402.867,429.651Z" style="fill:rgb(7,189,129);"/>
            <path d="M402.867,419.234C391.203,419.234 381.744,428.693 381.744,440.364C381.744,452.035 391.203,461.493 402.867,461.493C414.53,461.493 423.989,452.035 423.989,440.364C423.989,428.693 414.53,419.234 402.867,419.234ZM402.867,429.651C408.779,429.651 413.572,434.447 413.572,440.364C413.572,446.28 408.779,451.077 402.867,451.077C396.954,451.077 392.161,446.28 392.161,440.364C392.161,434.447 396.954,429.651 402.867,429.651Z" style="fill:rgb(32,62,52);"/>
        </g>
        <g id="Ellipse-3-copy-4" serif:id="Ellipse 3 copy 4">
            <path d="M520.629,293.062C526.541,293.062 531.334,297.858 531.334,303.775C531.334,309.691 526.541,314.488 520.629,314.488C514.716,314.488 509.923,309.691 509.923,303.775C509.923,297.858 514.716,293.062 520.629,293.062Z" style="fill:rgb(7,189,129);"/>
            <path d="M520.629,282.645C508.965,282.645 499.506,292.103 499.506,303.775C499.506,315.446 508.965,324.904 520.629,324.904C532.292,324.904 541.751,315.446 541.751,303.775C541.751,292.103 532.292,282.645 520.629,282.645ZM520.629,293.062C526.541,293.062 531.334,297.858 531.334,303.775C531.334,309.691 526.541,314.488 520.629,314.488C514.716,314.488 509.923,309.691 509.923,303.775C509.923,297.858 514.716,293.062 520.629,293.062Z" style="fill:rgb(31,61,51);"/>
        </g>
    </g>
</svg>
