<?xml version="1.0" encoding="UTF-8" standalone="no"?>
<!DOCTYPE svg PUBLIC "-//W3C//DTD SVG 1.1//EN" "http://www.w3.org/Graphics/SVG/1.1/DTD/svg11.dtd">
<svg width="100%" height="100%" viewBox="0 0 316 540" version="1.1" xmlns="http://www.w3.org/2000/svg" xmlns:xlink="http://www.w3.org/1999/xlink" xml:space="preserve" xmlns:serif="http://www.serif.com/" style="fill-rule:evenodd;clip-rule:evenodd;stroke-linejoin:round;stroke-miterlimit:2;">
    <g id="BASE">
    </g>
    <path d="M0,323L158,415L316,323L158,540L0,323Z" style="fill:rgb(13,49,136);"/>
    <path d="M160,0L1,92L1,275L159,367L316,275L316,91L160,0Z" style="fill:rgb(240,240,240);"/>
    <path d="M40.242,115.042L158.827,45.659L277.834,113.031L277.547,251.632L159.352,321.048L40.874,251.337L40.242,115.042Z" style="fill:rgb(13,49,136);"/>
    <g transform="matrix(0.332661,0,0,0.332661,74.3387,99.3387)">
        <path d="M256,8C119,8 8,119 8,256C8,393 119,504 256,504C393,504 504,393 504,256C504,119 393,8 256,8ZM256,456C145.5,456 56,366.5 56,256C56,145.5 145.5,56 256,56C366.5,56 456,145.5 456,256C456,366.5 366.5,456 256,456ZM357.8,193.8L295.6,256L357.8,318.2C362.5,322.9 362.5,330.5 357.8,335.2L335.2,357.8C330.5,362.5 322.9,362.5 318.2,357.8L256,295.6L193.8,357.8C189.1,362.5 181.5,362.5 176.8,357.8L154.2,335.2C149.5,330.5 149.5,322.9 154.2,318.2L216.4,256L154.2,193.8C149.5,189.1 149.5,181.5 154.2,176.8L176.8,154.2C181.5,149.5 189.1,149.5 193.8,154.2L256,216.4L318.2,154.2C322.9,149.5 330.5,149.5 335.2,154.2L357.8,176.8C362.5,181.5 362.5,189.1 357.8,193.8Z" style="fill:white;fill-rule:nonzero;"/>
    </g>
</svg>
