<?xml version="1.0" encoding="UTF-8" standalone="no"?>
<!DOCTYPE svg PUBLIC "-//W3C//DTD SVG 1.1//EN" "http://www.w3.org/Graphics/SVG/1.1/DTD/svg11.dtd">
<svg width="100%" height="100%" viewBox="0 0 316 540" version="1.1" xmlns="http://www.w3.org/2000/svg" xmlns:xlink="http://www.w3.org/1999/xlink" xml:space="preserve" xmlns:serif="http://www.serif.com/" style="fill-rule:evenodd;clip-rule:evenodd;stroke-linejoin:round;stroke-miterlimit:2;">
    <g id="BASE">
    </g>
    <path d="M0,323L158,415L316,323L158,540L0,323Z" style="fill:rgb(125,125,125);"/>
    <path d="M160,0L1,92L1,275L159,367L316,275L316,91L160,0Z" style="fill:rgb(201,35,39);"/>
    <path d="M40.242,115.042L158.827,45.659L277.834,113.031L277.547,251.632L159.352,321.048L40.874,251.337L40.242,115.042Z" style="fill:rgb(125,125,125);"/>
    <g id="Icons">
    </g>
    <g>
        <g transform="matrix(1,0,0,1,25,-4)">
            <path d="M94,123C94,123 93,155.333 97,166C100.732,175.953 123,187 123,187C123,187 100.632,196.465 97,206C93,216.5 94,250 94,250L86,250L86,259L179,259L179,251L170,251C170,251 171.667,217.667 168,207C164.778,197.628 143,187 143,187C143,187 164.894,177.178 168,168C171.667,157.167 170,122 170,122L179,122L179,114L85,114L85,123L94,123Z" style="fill:white;"/>
        </g>
        <g transform="matrix(1,0,0,1,-5,0)">
            <path d="M130,245C130,245 129.165,240.947 129.153,236.759C129.145,233.763 128.558,229.699 131,229C137.934,227.015 151.167,225.667 158,212C161.683,204.635 163.957,188.812 160,181C160,181 140.333,173 136,165C134.436,162.113 151.077,172.331 163.892,164.538C174.757,157.93 195,154 195,154C195,154 195.36,164.553 188,170C182.789,173.857 167,181 167,181L164.481,205.418C164.481,205.418 164.585,212.575 169,217C173.753,221.764 193.013,221.212 195,228C197,234.833 195,246 195,246L130,245Z" style="fill:rgb(125,125,125);"/>
        </g>
    </g>
</svg>
