<?xml version="1.0" encoding="UTF-8" standalone="no"?>
<!DOCTYPE svg PUBLIC "-//W3C//DTD SVG 1.1//EN" "http://www.w3.org/Graphics/SVG/1.1/DTD/svg11.dtd">
<svg width="100%" height="100%" viewBox="0 0 316 540" version="1.1" xmlns="http://www.w3.org/2000/svg" xmlns:xlink="http://www.w3.org/1999/xlink" xml:space="preserve" xmlns:serif="http://www.serif.com/" style="fill-rule:evenodd;clip-rule:evenodd;stroke-linejoin:round;stroke-miterlimit:2;">
    <g id="BASE">
    </g>
    <path d="M0,323L158,415L316,323L158,540L0,323Z" style="fill:rgb(226,53,169);"/>
    <path d="M160,0L1,92L1,275L159,367L316,275L316,91L160,0Z" style="fill:rgb(240,240,240);"/>
    <path d="M40.242,115.042L158.827,45.659L277.834,113.031L277.547,251.632L159.352,321.048L40.874,251.337L40.242,115.042Z" style="fill:rgb(226,53,169);"/>
    <g transform="matrix(0.277344,0,0,0.277344,106,116)">
        <path d="M172.268,501.67C26.97,291.031 0,269.413 0,192C0,85.961 85.961,0 192,0C298.039,0 384,85.961 384,192C384,269.413 357.03,291.031 211.732,501.67C202.197,515.444 181.802,515.443 172.268,501.67ZM192,272C236.183,272 272,236.183 272,192C272,147.817 236.183,112 192,112C147.817,112 112,147.817 112,192C112,236.183 147.817,272 192,272Z" style="fill:white;fill-rule:nonzero;"/>
    </g>
</svg>
